Normalized EMG Linear Envelopes
nRows=240
nColumns=4

endheader
time	 med_gas_r	  soleus_r	 tib_ant_r	
2.32863	  0.011826	  0.019339	  0.056584	
2.3619	  0.011412	  0.019095	  0.056808	
2.39516	  0.011056	  0.018997	  0.056955	
2.42843	  0.010788	  0.019026	  0.056997	
2.46169	  0.010635	  0.019120	  0.056872	
2.49496	  0.010593	  0.019212	  0.056517	
2.52823	  0.010675	  0.019227	  0.055908	
2.56149	  0.010875	  0.019147	  0.055106	
2.59476	  0.011130	  0.018971	  0.054267	
2.62802	  0.011322	  0.018700	  0.053521	
2.66129	  0.011376	  0.018366	  0.052944	
2.69456	  0.011293	  0.018028	  0.052562	
2.72782	  0.011096	  0.017671	  0.052351	
2.76109	  0.010838	  0.017365	  0.052270	
2.79435	  0.010628	  0.017225	  0.052293	
2.82762	  0.010540	  0.017314	  0.052385	
2.86089	  0.010621	  0.017622	  0.052494	
2.89415	  0.010882	  0.018094	  0.052590	
2.92742	  0.011264	  0.018688	  0.052703	
2.96069	  0.011653	  0.019387	  0.052892	
2.99395	  0.011934	  0.020133	  0.053164	
3.02722	  0.012048	  0.020860	  0.053457	
3.06048	  0.012000	  0.021420	  0.053706	
3.09375	  0.011858	  0.021731	  0.053868	
3.12702	  0.011681	  0.021867	  0.053913	
3.16028	  0.011528	  0.021895	  0.053881	
3.19355	  0.011425	  0.021806	  0.053821	
3.22681	  0.011371	  0.021592	  0.053729	
3.26008	  0.011370	  0.021311	  0.053591	
3.29335	  0.011403	  0.021076	  0.053373	
3.32661	  0.011401	  0.020955	  0.053049	
3.35988	  0.011365	  0.020987	  0.052628	
3.39315	  0.011292	  0.021155	  0.052185	
3.42641	  0.011138	  0.021380	  0.051832	
3.45968	  0.010934	  0.021590	  0.051681	
3.49294	  0.010708	  0.021853	  0.051713	
3.52621	  0.010498	  0.022226	  0.051980	
3.55948	  0.010357	  0.022675	  0.052483	
3.59274	  0.010316	  0.023111	  0.053049	
3.62601	  0.010394	  0.023501	  0.053534	
3.65927	  0.010602	  0.023774	  0.053907	
3.69254	  0.010940	  0.023753	  0.054177	
3.72581	  0.011394	  0.023324	  0.054373	
3.75907	  0.011927	  0.022632	  0.054497	
3.79234	  0.012475	  0.021858	  0.054581	
3.8256	  0.012919	  0.021139	  0.054617	
3.85887	  0.013160	  0.020645	  0.054618	
3.89214	  0.013172	  0.020435	  0.054602	
3.9254	  0.013004	  0.020419	  0.054546	
3.95867	  0.012721	  0.020472	  0.054442	
3.99194	  0.012378	  0.020675	  0.054324	
4.0252	  0.012068	  0.021114	  0.054243	
4.05847	  0.011847	  0.021760	  0.054238	
4.09173	  0.011713	  0.022530	  0.054335	
4.125	  0.011689	  0.023200	  0.054519	
4.15827	  0.011776	  0.023415	  0.054713	
4.19153	  0.011933	  0.023101	  0.054838	
4.2248	  0.012071	  0.022418	  0.054818	
4.25806	  0.012108	  0.021587	  0.054588	
4.29133	  0.012038	  0.020786	  0.054068	
4.3246	  0.011819	  0.020087	  0.053114	
4.35786	  0.011435	  0.019480	  0.051620	
4.39113	  0.010976	  0.018969	  0.049536	
4.4244	  0.010524	  0.018518	  0.046894	
4.45766	  0.010097	  0.018048	  0.043831	
4.49093	  0.009714	  0.017675	  0.040692	
4.52419	  0.009396	  0.017621	  0.038095	
4.55746	  0.009120	  0.018071	  0.037018	
4.59073	  0.008921	  0.019271	  0.038874	
4.62399	  0.008949	  0.021582	  0.045506	
4.65726	  0.009387	  0.025514	  0.059119	
4.69052	  0.010405	  0.031774	  0.081984	
4.72379	  0.012181	  0.041291	  0.116022	
4.75706	  0.014859	  0.054990	  0.161906	
4.79032	  0.018589	  0.073859	  0.218371	
4.82359	  0.023449	  0.098571	  0.282891	
4.85685	  0.029399	  0.129493	  0.352416	
4.89012	  0.036273	  0.165726	  0.421646	
4.92339	  0.043669	  0.204233	  0.483600	
4.95665	  0.050995	  0.239448	  0.535724	
4.98992	  0.057419	  0.265581	  0.576506	
5.02319	  0.062415	  0.281136	  0.605965	
5.05645	  0.066146	  0.289184	  0.626747	
5.08972	  0.069016	  0.293400	  0.642461	
5.12298	  0.071290	  0.295363	  0.655304	
5.15625	  0.072782	  0.293854	  0.664041	
5.18952	  0.072887	  0.286235	  0.667798	
5.22278	  0.071975	  0.275245	  0.667530	
5.25605	  0.070693	  0.264980	  0.665401	
5.28931	  0.069466	  0.256734	  0.660915	
5.32258	  0.068848	  0.251731	  0.655655	
5.35585	  0.069094	  0.251833	  0.653938	
5.38911	  0.070367	  0.259088	  0.661280	
5.42238	  0.072486	  0.272967	  0.678740	
5.45565	  0.075142	  0.292041	  0.701462	
5.48891	  0.078098	  0.314347	  0.724499	
5.52218	  0.080777	  0.335438	  0.746135	
5.55544	  0.082183	  0.348133	  0.762480	
5.58871	  0.081894	  0.348962	  0.770977	
5.62198	  0.080294	  0.340934	  0.771685	
5.65524	  0.078167	  0.328176	  0.769918	
5.68851	  0.076208	  0.312914	  0.772112	
5.72177	  0.074768	  0.296098	  0.784676	
5.75504	  0.073885	  0.279868	  0.811068	
5.78831	  0.073468	  0.267273	  0.849399	
5.82157	  0.073150	  0.259155	  0.893548	
5.85484	  0.072800	  0.255052	  0.936790	
5.8881	  0.072332	  0.253969	  0.972838	
5.92137	  0.071981	  0.256146	  0.996016	
5.95464	  0.071904	  0.260258	  0.997027	
5.9879	  0.071953	  0.263885	  0.968816	
6.02117	  0.072142	  0.266230	  0.916352	
6.05444	  0.072563	  0.266758	  0.848919	
6.0877	  0.073337	  0.265919	  0.776866	
6.12097	  0.074626	  0.264106	  0.710280	
6.15423	  0.076297	  0.260571	  0.656644	
6.1875	  0.078165	  0.255435	  0.617718	
6.22077	  0.080054	  0.250281	  0.592729	
6.25403	  0.082054	  0.246961	  0.579864	
6.2873	  0.083770	  0.245143	  0.575551	
6.32056	  0.084786	  0.243602	  0.577946	
6.35383	  0.085088	  0.242002	  0.586909	
6.3871	  0.084934	  0.241614	  0.602470	
6.42036	  0.084181	  0.241868	  0.622128	
6.45363	  0.082692	  0.241323	  0.641008	
6.4869	  0.080816	  0.240054	  0.655754	
6.52016	  0.078617	  0.237590	  0.665449	
6.55343	  0.076159	  0.235313	  0.672371	
6.58669	  0.073870	  0.236041	  0.677549	
6.61996	  0.072538	  0.242729	  0.679420	
6.65323	  0.072710	  0.256207	  0.676541	
6.68649	  0.074476	  0.275641	  0.667905	
6.71976	  0.077491	  0.297114	  0.654082	
6.75302	  0.081075	  0.315302	  0.636206	
6.78629	  0.084326	  0.327004	  0.613550	
6.81956	  0.086209	  0.330387	  0.588200	
6.85282	  0.086022	  0.324650	  0.566526	
6.88609	  0.083903	  0.312045	  0.554855	
6.91935	  0.080737	  0.297246	  0.555718	
6.95262	  0.077057	  0.282328	  0.567741	
6.98589	  0.073558	  0.267693	  0.589074	
7.01915	  0.071164	  0.254320	  0.616448	
7.05242	  0.070392	  0.244244	  0.644500	
7.08569	  0.071512	  0.239707	  0.669979	
7.11895	  0.074441	  0.243431	  0.693378	
7.15222	  0.078719	  0.257248	  0.716255	
7.18548	  0.083813	  0.281039	  0.734906	
7.21875	  0.088919	  0.311246	  0.745766	
7.25202	  0.093280	  0.341600	  0.747782	
7.28528	  0.096231	  0.365241	  0.743962	
7.31855	  0.096712	  0.375412	  0.736827	
7.35181	  0.094575	  0.370333	  0.728537	
7.38508	  0.090419	  0.351578	  0.721800	
7.41835	  0.085308	  0.322989	  0.714521	
7.45161	  0.080494	  0.289849	  0.704008	
7.48488	  0.076554	  0.256532	  0.691365	
7.51815	  0.073655	  0.227271	  0.679376	
7.55141	  0.071859	  0.204587	  0.670782	
7.58468	  0.071386	  0.189942	  0.666715	
7.61794	  0.072286	  0.184300	  0.665514	
7.65121	  0.074082	  0.186671	  0.663400	
7.68448	  0.075992	  0.194465	  0.660322	
7.71774	  0.077690	  0.205214	  0.658827	
7.75101	  0.079065	  0.216813	  0.660259	
7.78427	  0.080321	  0.228235	  0.665217	
7.81754	  0.081852	  0.239625	  0.671625	
7.85081	  0.083725	  0.250323	  0.676633	
7.88407	  0.085522	  0.259665	  0.680143	
7.91734	  0.087102	  0.269174	  0.683595	
7.9506	  0.088525	  0.279999	  0.688530	
7.98387	  0.089578	  0.291280	  0.696779	
8.01714	  0.090514	  0.303016	  0.706753	
8.0504	  0.091875	  0.316550	  0.714190	
8.08367	  0.093682	  0.330724	  0.715261	
8.11694	  0.095413	  0.343442	  0.712368	
8.1502	  0.096510	  0.351965	  0.705397	
8.18347	  0.096662	  0.352346	  0.692168	
8.21673	  0.095890	  0.343679	  0.673589	
8.25	  0.094553	  0.329943	  0.651976	
8.28327	  0.092956	  0.315958	  0.628525	
8.31653	  0.091885	  0.307733	  0.607504	
8.3498	  0.091624	  0.307499	  0.591776	
8.38306	  0.092191	  0.314246	  0.582089	
8.41633	  0.093356	  0.325134	  0.577629	
8.4496	  0.094858	  0.337020	  0.578707	
8.48286	  0.096601	  0.349646	  0.588503	
8.51613	  0.098504	  0.362863	  0.608922	
8.5494	  0.100264	  0.375458	  0.640387	
8.58266	  0.101814	  0.387043	  0.680607	
8.61593	  0.102913	  0.396453	  0.724817	
8.64919	  0.103785	  0.404309	  0.767759	
8.68246	  0.103929	  0.407310	  0.802055	
8.71573	  0.102607	  0.402098	  0.820105	
8.74899	  0.100012	  0.390365	  0.819631	
8.78226	  0.096885	  0.374611	  0.803582	
8.81552	  0.094193	  0.359456	  0.779068	
8.84879	  0.092568	  0.348069	  0.754505	
8.88206	  0.092091	  0.340172	  0.733714	
8.91532	  0.092241	  0.333159	  0.714731	
8.94859	  0.092287	  0.325369	  0.694580	
8.98185	  0.091896	  0.317253	  0.670497	
9.01512	  0.090902	  0.309490	  0.642782	
9.04839	  0.089109	  0.302451	  0.616587	
9.08165	  0.086672	  0.298043	  0.597984	
9.11492	  0.084118	  0.297631	  0.590707	
9.14819	  0.081858	  0.301629	  0.594133	
9.18145	  0.080132	  0.309843	  0.606570	
9.21472	  0.079514	  0.321619	  0.626720	
9.24798	  0.080008	  0.333753	  0.651871	
9.28125	  0.081094	  0.342686	  0.676769	
9.31452	  0.082130	  0.345527	  0.695949	
9.34778	  0.082443	  0.340256	  0.705974	
9.38105	  0.081155	  0.325124	  0.703605	
9.41431	  0.078153	  0.302973	  0.690314	
9.44758	  0.074126	  0.278518	  0.667338	
9.48085	  0.069925	  0.255935	  0.633850	
9.51411	  0.065789	  0.236530	  0.592564	
9.54738	  0.061715	  0.219388	  0.547735	
9.58065	  0.057849	  0.203560	  0.504589	
9.61391	  0.053897	  0.188257	  0.464980	
9.64718	  0.049649	  0.173187	  0.428566	
9.68044	  0.045188	  0.159049	  0.392455	
9.71371	  0.040607	  0.145843	  0.354197	
9.74698	  0.036055	  0.133467	  0.314327	
9.78024	  0.031527	  0.121078	  0.272979	
9.81351	  0.027129	  0.107912	  0.231029	
9.84677	  0.023018	  0.094099	  0.190101	
9.88004	  0.019418	  0.080458	  0.151941	
9.91331	  0.016659	  0.068734	  0.119034	
9.94657	  0.014885	  0.060023	  0.092771	
9.97984	  0.014024	  0.054393	  0.073421	
10.0131	  0.013830	  0.051119	  0.060336	
10.0464	  0.014005	  0.049190	  0.052386	
10.0796	  0.014353	  0.048058	  0.048294	
10.1129	  0.014712	  0.047400	  0.046885	
10.1462	  0.015003	  0.046825	  0.047154	
10.1794	  0.015131	  0.045403	  0.048336	
10.2127	  0.015079	  0.042947	  0.049893	
10.246	  0.014892	  0.040205	  0.051454	
10.2792	  0.014621	  0.038177	  0.052765	
